<?xml version="1.0" encoding="UTF-8" standalone="no"?>
<svg
   id="Capa_1"
   version="1.1"
   viewBox="0 0 239.4 89.1"
   sodipodi:docname="mng-logo-light.svg"
   inkscape:version="1.3.2 (091e20e, 2023-11-25)"
   xmlns:inkscape="http://www.inkscape.org/namespaces/inkscape"
   xmlns:sodipodi="http://sodipodi.sourceforge.net/DTD/sodipodi-0.dtd"
   xmlns="http://www.w3.org/2000/svg"
   xmlns:svg="http://www.w3.org/2000/svg">
  <sodipodi:namedview
     id="namedview7"
     pagecolor="#ffffff"
     bordercolor="#000000"
     borderopacity="0.25"
     inkscape:showpageshadow="2"
     inkscape:pageopacity="0.0"
     inkscape:pagecheckerboard="0"
     inkscape:deskcolor="#d1d1d1"
     inkscape:zoom="2.6487094"
     inkscape:cx="119.68093"
     inkscape:cy="44.549999"
     inkscape:window-width="1376"
     inkscape:window-height="449"
     inkscape:window-x="0"
     inkscape:window-y="38"
     inkscape:window-maximized="0"
     inkscape:current-layer="Capa_1" />
  <!-- Generator: Adobe Illustrator 29.1.0, SVG Export Plug-In . SVG Version: 2.1.0 Build 142)  -->
  <defs
     id="defs1">
    <style
       id="style1">
      .st0 {
        fill: #1d1d1b;
      }
    </style>
  </defs>
  <polygon
     class="st0"
     points="24.2 43.9 27.9 49.7 35.3 38 35.3 64 41.6 64 41.6 26.1 35.2 26.1 24.2 43.9"
     id="polygon1"
     style="fill:#f9f9f9" />
  <polygon
     class="st0"
     points="6.4 26.1 0 26.1 0 64 6.4 64 6.4 38 20.8 61.1 24.5 55.2 6.4 26.1"
     id="polygon2"
     style="fill:#f9f9f9" />
  <polygon
     class="st0"
     points="79.8 52.3 85.7 64 93.4 64 74.2 26.1 67.3 26.1 67.2 26.1 76.9 46.2 64.1 46.2 67.4 39.7 63.9 32.6 47.7 64 54.9 64 61 52.3 79.8 52.3"
     id="polygon3"
     style="fill:#f9f9f9" />
  <polygon
     class="st0"
     points="135.8 26.1 129.4 26.1 129.4 44.5 135.8 50.9 135.8 26.1"
     id="polygon4"
     style="fill:#f9f9f9" />
  <polygon
     class="st0"
     points="105 26.1 98.6 26.1 98.6 64 104.9 64 104.9 35.7 131.1 64 135.8 64 135.8 59.4 105 26.1"
     id="polygon5"
     style="fill:#f9f9f9" />
  <path
     class="st0"
     d="M180.3,36.6c-3-3.2-7.7-5.2-13-5.2-8.4,0-15.3,5.1-16.4,11.8h-7c.9-10.4,11.5-18,23.5-18s13.5,2.7,17.8,6.9l-5,4.4Z"
     id="path5"
     style="fill:#f9f9f9" />
  <path
     class="st0"
     d="M166.8,58.7c-7,0-12.9-3.8-15.2-9.1h-7.2c2.4,9.1,11.7,15.2,22.7,15.2s5.5-.3,8-.9c5.5-1.4,11.6-5,11.6-10.6v-10.1h-20v6.3s13.6,0,13.6,0v2.9c0,3.2-4.7,5-7.7,5.7-1.6.3-3.6.5-5.2.5h-.7Z"
     id="path6"
     style="fill:#f9f9f9" />
  <path
     class="st0"
     d="M239.4,45.1c0-11.3-10.3-20.1-22.8-20.1s-22.9,8.4-22.9,19.4,8.4,18.8,19.7,20.2v-6.3c-7.4-1.2-13-6.8-13-13.4s7.2-13.7,16.1-13.7,16.1,6.1,16.1,13.7-5.5,12.1-12.8,13.4v6.3c10.9-1.3,19.7-9.4,19.7-19.5"
     id="path7"
     style="fill:#f9f9f9" />
</svg>
